<svg width="164" height="164" viewBox="0 0 164 164" fill="none" xmlns="http://www.w3.org/2000/svg">
<path d="M156.795 81.9999C156.795 91.8221 154.86 101.548 151.102 110.623C147.343 119.697 141.833 127.942 134.888 134.888C127.943 141.833 119.697 147.343 110.623 151.101C101.548 154.86 91.8223 156.795 82.0001 156.795C72.178 156.795 62.4519 154.86 53.3774 151.101C44.3029 147.343 36.0576 141.833 29.1122 134.888C22.1669 127.942 16.6575 119.697 12.8987 110.623C9.13995 101.548 7.20532 91.8221 7.20532 81.9999C7.20532 72.1777 9.13995 62.4517 12.8987 53.3772C16.6575 44.3026 22.1669 36.0573 29.1122 29.112C36.0576 22.1666 44.3029 16.6573 53.3774 12.8985C62.4519 9.1397 72.178 7.20508 82.0002 7.20508C91.8224 7.20508 101.548 9.13971 110.623 12.8985C119.697 16.6573 127.943 22.1666 134.888 29.112C141.833 36.0573 147.343 44.3026 151.102 53.3772C154.86 62.4517 156.795 72.1777 156.795 81.9999L156.795 81.9999Z" stroke="#F0F1ED" stroke-width="3" stroke-linecap="round"/>
<path d="M157.465 82.0001C157.465 96.9256 153.039 111.516 144.747 123.926C136.455 136.336 124.669 146.009 110.879 151.721C97.0899 157.432 81.9164 158.927 67.2776 156.015C52.6388 153.103 39.1923 145.916 28.6383 135.362C18.0844 124.808 10.897 111.361 7.98519 96.7226C5.07336 82.0838 6.56782 66.9103 12.2796 53.1209C17.9913 39.3315 27.6639 27.5455 40.074 19.2533C52.4842 10.9611 67.0745 6.53516 82.0001 6.53516" stroke="#FEE000" stroke-width="13" stroke-linecap="round"/>
</svg>
