<svg width="122" height="42" viewBox="0 0 122 42" fill="none" xmlns="http://www.w3.org/2000/svg">
<path d="M44.3305 33V9.6571H60.8373V14.259H50.333V19.6612H59.8369V23.9963H50.333V33H44.3305ZM63.8294 33V15.3261H68.9648V33H63.8294ZM66.3971 13.6587C65.4412 13.6587 64.6964 13.4142 64.1629 12.9251C63.6515 12.4138 63.3959 11.7691 63.3959 10.991C63.3959 10.2129 63.6515 9.57929 64.1629 9.0902C64.6964 8.57888 65.4412 8.32322 66.3971 8.32322C67.3531 8.32322 68.0867 8.57888 68.598 9.0902C69.1316 9.57929 69.3983 10.2129 69.3983 10.991C69.3983 11.7691 69.1316 12.4138 68.598 12.9251C68.0867 13.4142 67.3531 13.6587 66.3971 13.6587ZM72.6468 33V15.3261H77.3821V17.7271C77.8267 16.9267 78.5159 16.2598 79.4496 15.7263C80.4055 15.1705 81.6727 14.8926 83.2512 14.8926C85.3631 14.8926 86.9527 15.4595 88.0198 16.5933C89.1091 17.7271 89.6538 19.3611 89.6538 21.4953V33H84.5183V22.6624C84.5183 21.5064 84.2627 20.6394 83.7514 20.0614C83.2623 19.4611 82.4508 19.161 81.317 19.161C80.4945 19.161 79.8164 19.3277 79.2829 19.6612C78.7715 19.9724 78.3936 20.3948 78.1491 20.9284C77.9045 21.4397 77.7822 22.0177 77.7822 22.6624V33H72.6468ZM100.841 40.1029C98.9288 40.1029 97.3948 39.8806 96.2388 39.436C95.105 38.9913 94.2713 38.3355 93.7377 37.4685C93.2264 36.6237 92.9263 35.6344 92.8374 34.5006H98.0729C98.184 34.9008 98.4286 35.2787 98.8065 35.6344C99.2066 35.9901 99.8847 36.168 100.841 36.168C102.175 36.168 103.175 35.8567 103.842 35.2342C104.531 34.634 104.876 33.6669 104.876 32.3331V30.4323C104.275 31.2993 103.52 31.9662 102.608 32.4331C101.719 32.8777 100.774 33.1 99.7735 33.1C98.2396 33.1 96.8946 32.7666 95.7386 32.0996C94.6048 31.4327 93.7266 30.4434 93.1041 29.1317C92.4817 27.8201 92.1704 26.1639 92.1704 24.163V23.4961C92.1704 21.6287 92.4706 20.0614 93.0708 18.7942C93.6933 17.5048 94.5714 16.5377 95.7052 15.893C96.8612 15.226 98.2174 14.8926 99.7735 14.8926C101.152 14.8926 102.297 15.1927 103.208 15.7929C104.142 16.371 104.831 17.0157 105.276 17.7271V15.3261H110.011V31.8329C110.011 34.5895 109.266 36.6571 107.777 38.0354C106.31 39.4137 103.998 40.1029 100.841 40.1029ZM101.007 28.865C101.741 28.865 102.397 28.6982 102.975 28.3648C103.553 28.0313 104.009 27.5533 104.342 26.9308C104.698 26.2861 104.876 25.5303 104.876 24.6632V22.9959C104.876 22.1511 104.698 21.4508 104.342 20.895C104.009 20.317 103.553 19.8835 102.975 19.5945C102.397 19.2833 101.741 19.1276 101.007 19.1276C99.9625 19.1276 99.1066 19.4945 98.4397 20.2281C97.7727 20.9395 97.4393 22.0288 97.4393 23.4961V24.163C97.4393 25.697 97.7727 26.8642 98.4397 27.6645C99.1288 28.4648 99.9847 28.865 101.007 28.865ZM113.687 33V15.3261H118.823V33H113.687ZM116.255 13.6587C115.299 13.6587 114.554 13.4142 114.021 12.9251C113.509 12.4138 113.254 11.7691 113.254 10.991C113.254 10.2129 113.509 9.57929 114.021 9.0902C114.554 8.57888 115.299 8.32322 116.255 8.32322C117.211 8.32322 117.944 8.57888 118.456 9.0902C118.989 9.57929 119.256 10.2129 119.256 10.991C119.256 11.7691 118.989 12.4138 118.456 12.9251C117.944 13.4142 117.211 13.6587 116.255 13.6587Z" fill="#053969"/>
<path d="M0.0910459 7.89874C0.0910459 7.89874 -0.14084 3.28894 5.25479 3.28894C10.6504 3.28894 30.6338 3.28894 30.6338 3.28894L35.4298 9.03308L30.6338 14.7772C30.6338 14.7772 8.77159 14.7772 5.25479 14.7772C1.738 14.7772 0.0910459 18.2083 0.0910459 18.2083V7.89874Z" fill="#FEE000"/>
<path d="M0.0910459 21.011C0.0910459 21.011 1.13578 16.4012 5.25479 16.4012C9.37381 16.4012 20.6151 16.4012 20.6151 16.4012L25.4111 22.1454L20.6151 27.8895L5.25479 27.8895C3.15917 27.8895 0.389086 29.7944 0.0910459 31.336V21.011Z" fill="#C6A73C"/>
<path d="M0 35.3292C0 32.1174 2.60367 29.5137 5.81547 29.5137H10.7473V41.1446H5.81547C2.60367 41.1446 0 38.541 0 35.3292Z" fill="#053969"/>
</svg>
