<svg width="136" height="50" viewBox="0 0 136 50" fill="none" xmlns="http://www.w3.org/2000/svg">
<path d="M19.8739 0.633201C21.3538 -0.211067 23.1772 -0.211067 24.6571 0.633201L42.1394 10.6063C43.6193 11.4506 44.531 13.0109 44.531 14.6994V34.6457C44.531 36.3342 43.6193 37.8945 42.1394 38.7388L24.6571 48.7119C23.1772 49.5562 21.3538 49.5562 19.8739 48.7119L2.39163 38.7388C0.911683 37.8945 0 36.3342 0 34.6457V14.6994C0 13.0109 0.911683 11.4506 2.39163 10.6063L19.8739 0.633201Z" fill="#FEE000"/>
<rect x="11.208" y="17.2026" width="22.115" height="16.2478" rx="2.40708" stroke="#F22A52" stroke-width="2.40708"/>
<path d="M11.3396 22.7402H33.2448" stroke="#F22A52" stroke-width="2.40708" stroke-linecap="round" stroke-linejoin="round"/>
<path d="M17.4202 28.4863H20.5795" stroke="#F22A52" stroke-width="2.40708" stroke-linecap="round" stroke-linejoin="round"/>
<path d="M65.2126 34.5431C63.4827 34.5431 61.9381 34.2341 60.5789 33.6163C59.2197 32.9809 58.1518 31.9659 57.3751 30.5714C56.6161 29.1769 56.2366 27.3234 56.2366 25.011V24.5079C56.2366 22.8663 56.466 21.463 56.925 20.298C57.3839 19.1329 58.0194 18.1797 58.8314 17.4383C59.661 16.697 60.6231 16.1498 61.7175 15.7967C62.8119 15.4437 63.9769 15.2672 65.2126 15.2672C66.3423 15.2672 67.4014 15.3995 68.3899 15.6643C69.3961 15.9291 70.2787 16.3528 71.0377 16.9353C71.8144 17.5001 72.4322 18.2415 72.8911 19.1594C73.3677 20.0773 73.6414 21.1982 73.712 22.5221H67.7809C67.6574 21.6042 67.3484 20.9687 66.8542 20.6157C66.3776 20.2627 65.8304 20.0861 65.2126 20.0861C64.6654 20.0861 64.1623 20.2273 63.7033 20.5098C63.262 20.7922 62.909 21.26 62.6442 21.9131C62.3794 22.5486 62.247 23.4135 62.247 24.5079V25.0375C62.247 25.9024 62.3265 26.635 62.4853 27.2352C62.6442 27.8177 62.856 28.2943 63.1208 28.665C63.3856 29.0357 63.6945 29.3093 64.0475 29.4858C64.4182 29.6446 64.8066 29.7241 65.2126 29.7241C65.901 29.7241 66.4747 29.5476 66.9336 29.1945C67.3926 28.8238 67.675 28.1884 67.7809 27.2881H73.712C73.6414 28.6297 73.3766 29.7682 72.9176 30.7038C72.4763 31.6217 71.8762 32.363 71.1171 32.9279C70.3581 33.4928 69.4755 33.9076 68.4693 34.1724C67.4632 34.4195 66.3776 34.5431 65.2126 34.5431ZM75.48 34.1724V20.1391H80.0871V21.8866C80.2107 21.5336 80.4137 21.1982 80.6961 20.8805C80.9962 20.5451 81.3581 20.2803 81.7817 20.0861C82.223 19.8743 82.7084 19.7684 83.238 19.7684C83.4851 19.7684 83.7146 19.786 83.9264 19.8214C84.1382 19.839 84.3324 19.8831 84.5089 19.9537V24.1372C84.3501 24.0666 84.1029 23.996 83.7676 23.9254C83.4498 23.8548 83.1233 23.8195 82.7879 23.8195C82.223 23.8195 81.7641 23.9166 81.411 24.1108C81.0756 24.2873 80.8285 24.5344 80.6696 24.8521C80.5284 25.1699 80.4578 25.5406 80.4578 25.9642V34.1724H75.48ZM92.8919 34.5431C91.4268 34.5431 90.1205 34.2783 88.9731 33.7487C87.8434 33.2192 86.952 32.4248 86.2989 31.3657C85.6634 30.2889 85.3457 28.9474 85.3457 27.3411V26.8115C85.3457 25.2405 85.6546 23.9431 86.2724 22.9193C86.8902 21.8778 87.7463 21.0923 88.8408 20.5627C89.9528 20.0332 91.2149 19.7684 92.6271 19.7684C95.0631 19.7684 96.8812 20.3774 98.0815 21.5954C99.2819 22.7957 99.882 24.5609 99.882 26.8909V28.4267H90.3765C90.4118 28.9739 90.5353 29.4328 90.7472 29.8035C90.959 30.1566 91.2414 30.4213 91.5945 30.5978C91.9651 30.7567 92.3976 30.8362 92.8919 30.8362C93.5097 30.8362 93.9863 30.7391 94.3217 30.5449C94.6747 30.3331 94.913 30.0683 95.0366 29.7506H99.6967C99.4143 31.3745 98.6905 32.5837 97.5255 33.378C96.3781 34.1547 94.8336 34.5431 92.8919 34.5431ZM92.7595 23.4753C92.3005 23.4753 91.8945 23.5547 91.5415 23.7136C91.2061 23.8725 90.9413 24.1019 90.7472 24.402C90.553 24.6845 90.4383 25.064 90.403 25.5406H95.0101C94.9925 25.0463 94.8865 24.6492 94.6924 24.3491C94.4982 24.049 94.2334 23.8283 93.898 23.6871C93.5803 23.5459 93.2008 23.4753 92.7595 23.4753ZM106.865 34.5431C105.753 34.5431 104.764 34.2871 103.899 33.7752C103.034 33.2456 102.346 32.4513 101.834 31.3922C101.34 30.3154 101.093 28.965 101.093 27.3411V26.8115C101.093 25.2758 101.322 23.9872 101.781 22.9457C102.258 21.9043 102.929 21.1188 103.794 20.5892C104.676 20.042 105.709 19.7684 106.891 19.7684C107.686 19.7684 108.427 19.9361 109.116 20.2715C109.804 20.6069 110.369 21.1011 110.81 21.7542V15.6378H115.788V34.1724H111.181V32.4248C110.845 33.0073 110.334 33.5104 109.645 33.9341C108.957 34.3401 108.03 34.5431 106.865 34.5431ZM108.401 30.4919C108.842 30.4919 109.239 30.3949 109.592 30.2007C109.963 29.9889 110.254 29.6711 110.466 29.2475C110.695 28.8062 110.81 28.2678 110.81 27.6323V26.5467C110.81 25.9289 110.695 25.417 110.466 25.011C110.254 24.605 109.963 24.3049 109.592 24.1108C109.239 23.9166 108.842 23.8195 108.401 23.8195C107.765 23.8195 107.236 24.0578 106.812 24.5344C106.388 25.011 106.177 25.77 106.177 26.8115V27.3411C106.177 28.4355 106.397 29.2387 106.838 29.7506C107.297 30.2448 107.818 30.4919 108.401 30.4919ZM118.227 34.1724V20.1391H123.178V34.1724H118.227ZM120.716 18.8152C119.816 18.8152 119.127 18.621 118.651 18.2327C118.174 17.8443 117.936 17.3324 117.936 16.697C117.936 16.0615 118.174 15.5496 118.651 15.1612C119.127 14.7729 119.816 14.5787 120.716 14.5787C121.634 14.5787 122.322 14.7729 122.781 15.1612C123.258 15.5496 123.496 16.0615 123.496 16.697C123.496 17.3324 123.258 17.8443 122.781 18.2327C122.322 18.621 121.634 18.8152 120.716 18.8152ZM131.919 34.3312C130.683 34.3312 129.668 34.1635 128.874 33.8282C128.08 33.4928 127.488 32.9279 127.1 32.1336C126.729 31.3392 126.544 30.2536 126.544 28.8768V24.1372H124.902V20.1391H126.544V16.9617H131.522V20.1391H134.434V24.1372H131.522V27.9236C131.522 28.7885 131.628 29.4063 131.84 29.777C132.051 30.1301 132.528 30.3066 133.269 30.3066C133.746 30.3066 134.223 30.2801 134.699 30.2272V34.1194C134.276 34.19 133.834 34.243 133.375 34.2783C132.916 34.3136 132.431 34.3312 131.919 34.3312Z" fill="#053969"/>
</svg>
