<?xml version="1.0" encoding="utf-8"?><svg xmlns="http://www.w3.org/2000/svg" xmlns:xlink="http://www.w3.org/1999/xlink"><symbol viewBox="0 0 13 13" id="arrow" xmlns="http://www.w3.org/2000/svg"><path fill-rule="evenodd" clip-rule="evenodd" d="M-2.64056e-07 5.43425L9.09265 5.43425L5.0858 1.41121L6.50286 -0.000153827L12.9114 6.43425L6.50285 12.8687L5.08579 11.4573L9.09265 7.43425L-2.3659e-07 7.43425L-2.64056e-07 5.43425Z"/></symbol><symbol viewBox="0 0 26 26" id="cross" xmlns="http://www.w3.org/2000/svg"><path d="M6.24138 6L13 12.8772M13 12.8772L20 20M13 12.8772L6 20M13 12.8772L19.7586 6.00001"/></symbol><symbol viewBox="0 0 16 15" id="drop" xmlns="http://www.w3.org/2000/svg"><path d="M14.125 4.59082L8 10.5312L1.875 4.59082"/></symbol><symbol viewBox="0 0 26 26" id="menu" xmlns="http://www.w3.org/2000/svg"><path d="M3 9L23 9"/><path d="M3 16L23 16"/></symbol><symbol viewBox="0 0 18 17" id="user" xmlns="http://www.w3.org/2000/svg"><circle cx="8.94164" cy="8.614" r="7.12425"/><circle cx="8.94162" cy="7.46799" r="2.55002"/><path d="M13.4733 14.5497C13.4733 12.0469 11.4445 10.0181 8.94175 10.0181C6.43902 10.0181 4.41016 12.0469 4.41016 14.5497"/></symbol></svg>