<?xml version="1.0" encoding="utf-8"?><svg xmlns="http://www.w3.org/2000/svg" xmlns:xlink="http://www.w3.org/1999/xlink"><symbol viewBox="0 0 13 13" id="arrow" xmlns="http://www.w3.org/2000/svg"><path fill-rule="evenodd" clip-rule="evenodd" d="M-2.64056e-07 5.43425L9.09265 5.43425L5.0858 1.41121L6.50286 -0.000153827L12.9114 6.43425L6.50285 12.8687L5.08579 11.4573L9.09265 7.43425L-2.3659e-07 7.43425L-2.64056e-07 5.43425Z"/></symbol><symbol viewBox="0 0 26 26" id="cross" xmlns="http://www.w3.org/2000/svg"><path d="M6.24138 6L13 12.8772M13 12.8772L20 20M13 12.8772L6 20M13 12.8772L19.7586 6.00001"/></symbol><symbol viewBox="0 0 16 15" id="drop" xmlns="http://www.w3.org/2000/svg"><path d="M14.125 4.59082L8 10.5312L1.875 4.59082"/></symbol><symbol viewBox="0 0 17 18" id="edit" xmlns="http://www.w3.org/2000/svg"><path d="M3.1452 11.779L12.7846 2.12983C13.3933 1.52053 14.3802 1.52053 14.9888 2.12983L15.5435 2.68504C16.1522 3.29434 16.1522 4.28221 15.5435 4.89151L14.5462 5.88982M3.1452 11.779L2 15.6729L5.90409 14.5407M3.1452 11.779C4.68162 11.9506 5.73749 12.975 5.90409 14.5407M5.90409 14.5407L14.5462 5.88982M14.5462 5.88982L15.289 6.63337C15.289 6.63337 15.9956 7.30818 15.289 8.01552L12.0808 11.227"/></symbol><symbol viewBox="0 0 16 17" id="mail" xmlns="http://www.w3.org/2000/svg"><path d="M3.82466 6.97832L8 10.3395L12.305 6.97832M2.6391 14.3395H13.3609C14.2662 14.3395 15 13.6056 15 12.7004V5.47503C15 4.56979 14.2661 3.83594 13.3609 3.83594H2.6391C1.73385 3.83594 1 4.56979 1 5.47503L1 12.7004C1 13.6056 1.73385 14.3395 2.6391 14.3395Z"/></symbol><symbol viewBox="0 0 26 26" id="menu" xmlns="http://www.w3.org/2000/svg"><path d="M3 9L23 9"/><path d="M3 16L23 16"/></symbol><symbol viewBox="0 0 16 17" id="phone" xmlns="http://www.w3.org/2000/svg"><path d="M3.5 2.82146C3.5 2.1871 4.01343 1.67285 4.64677 1.67285H11.3532C11.9866 1.67285 12.5 2.1871 12.5 2.82146V9.9517V14.5242C12.5 15.1586 11.9866 15.6729 11.3532 15.6729H6.7032H4.64677C4.01343 15.6729 3.5 15.1586 3.5 14.5242L3.5 12.7113L3.5 2.82146Z"/><circle cx="8" cy="11.7942" r="1"/></symbol><symbol viewBox="0 0 16 17" id="settings" xmlns="http://www.w3.org/2000/svg"><path d="M1 4.43555H2.90451M15 4.43555H8.00011"/><path d="M1 12.7744H8.46335M15 12.7744H13.0957"/><path fill-rule="evenodd" clip-rule="evenodd" d="M5.22072 6.7515C6.49991 6.7515 7.5369 5.71451 7.5369 4.43532C7.5369 3.15613 6.49991 2.11914 5.22072 2.11914C3.94153 2.11914 2.90454 3.15613 2.90454 4.43532C2.90454 5.71451 3.94153 6.7515 5.22072 6.7515Z"/><path fill-rule="evenodd" clip-rule="evenodd" d="M10.7796 15.0904C12.0587 15.0904 13.0957 14.0534 13.0957 12.7742C13.0957 11.495 12.0587 10.458 10.7796 10.458C9.50038 10.458 8.46338 11.495 8.46338 12.7742C8.46338 14.0534 9.50038 15.0904 10.7796 15.0904Z"/></symbol><symbol viewBox="0 0 18 17" id="user" xmlns="http://www.w3.org/2000/svg"><circle cx="8.94164" cy="8.614" r="7.12425"/><circle cx="8.94162" cy="7.46799" r="2.55002"/><path d="M13.4733 14.5497C13.4733 12.0469 11.4445 10.0181 8.94175 10.0181C6.43902 10.0181 4.41016 12.0469 4.41016 14.5497"/></symbol></svg>